<svg id="Layer_1" data-name="Layer 1" xmlns="http://www.w3.org/2000/svg" viewBox="0 0 403.79 114.48"><defs><style>.cls-1{fill:#009daf;}.cls-2{fill:#625e5d;}</style></defs><title>ZUPPER_logo-VETORIZADO</title><path class="cls-1" d="M154,150.81,123.29,182h28.44c8.57,0,15.66-7.88,15.66-15.65C167.39,157.31,162.27,152.88,154,150.81Z" transform="translate(-103.11 -111.43)"/><path class="cls-1" d="M162.47,139.1c9.25-9.25,4.33-27.07-11-27.07h-1l-41.74,42.42A15.59,15.59,0,0,0,119.05,182h.79C151.15,150.22,157.05,144.61,162.47,139.1Z" transform="translate(-103.11 -111.43)"/><path class="cls-1" d="M115.61,143.62,147,112h-28a15.77,15.77,0,0,0-15.75,15.65A16.5,16.5,0,0,0,115.61,143.62Z" transform="translate(-103.11 -111.43)"/><path class="cls-1" d="M205.64,127.38V182c19.09,0,32.28-15.16,32.28-33.08V127.38C237.92,106.12,205.64,107.3,205.64,127.38Z" transform="translate(-103.11 -111.43)"/><path class="cls-1" d="M170.79,127.38v21.56c0,17.92,13.09,33.08,32.29,33.08V127.38C203.47,106.51,170.79,107.1,170.79,127.38Z" transform="translate(-103.11 -111.43)"/><path class="cls-1" d="M242.59,127.38V166a16.11,16.11,0,0,0,32.09,2V111.43H258.93A16.1,16.1,0,0,0,242.59,127.38Z" transform="translate(-103.11 -111.43)"/><path class="cls-1" d="M278.32,111.43h-.88V167l.09.49a28,28,0,1,0,.79-56Z" transform="translate(-103.11 -111.43)"/><path class="cls-1" d="M309.69,127.38V166a16.11,16.11,0,0,0,32.09,2V111.43H326A16.09,16.09,0,0,0,309.69,127.38Z" transform="translate(-103.11 -111.43)"/><path class="cls-1" d="M345.42,111.43h-.89V167l.1.49a28,28,0,1,0,.79-56Z" transform="translate(-103.11 -111.43)"/><path class="cls-1" d="M435.58,170.45a12.87,12.87,0,0,0-12.69-12.67l-6.28,0v-2H421c10.76,0,12.42-4.42,12.42-9,0-4.25-1.76-8.28-12.12-8.24h-4.68v-2h4.59c8.6,0,14.17-4.94,14.17-11.63-.14-6-5.61-12.83-15.07-12.83H407.25v70H420.6C429.8,182,435.56,176.61,435.58,170.45Z" transform="translate(-103.11 -111.43)"/><path class="cls-1" d="M377.6,127.88v38.58A15.71,15.71,0,0,0,393.44,182H404.7V112H393.64A15.63,15.63,0,0,0,377.6,127.88Z" transform="translate(-103.11 -111.43)"/><path class="cls-1" d="M439.42,127.06v38.59a16,16,0,0,0,15.65,15.95,15.53,15.53,0,0,0,15.75-14.67V111.5H455.37A15.74,15.74,0,0,0,439.42,127.06Z" transform="translate(-103.11 -111.43)"/><path class="cls-1" d="M501.48,155.18c4-5.64,5.41-8.79,5.41-16.25,0-15.46-13.91-27.43-29.37-27.43h-4.23v58.38l6.1,7.09c5.32,7.18,15.95,6.1,21.56.49S505.91,161.48,501.48,155.18Z" transform="translate(-103.11 -111.43)"/><path class="cls-2" d="M120.48,201.23h2.64l-7.81,18.54h-.6l-8-18.54h2.66l5.56,13Z" transform="translate(-103.11 -111.43)"/><path class="cls-2" d="M132.2,201.23h2.65v18.46H132.2Z" transform="translate(-103.11 -111.43)"/><path class="cls-2" d="M151.88,201.12h1.86L162,219.69h-2.71l-2.46-5.47H149l-2.3,5.47H144Zm3.88,10.75-3-6.69L150,211.87Z" transform="translate(-103.11 -111.43)"/><path class="cls-2" d="M171.11,201.23h2.64v18.22a10.18,10.18,0,0,1-.52,3.78,4.2,4.2,0,0,1-1.69,2,5.13,5.13,0,0,1-2.8.74,8.63,8.63,0,0,1-.86-.08l-.49-2.46h.68a4.18,4.18,0,0,0,1.73-.28,2,2,0,0,0,1-1,8,8,0,0,0,.35-3Z" transform="translate(-103.11 -111.43)"/><path class="cls-2" d="M190.78,201.12h1.86l8.28,18.57h-2.7l-2.47-5.47h-7.87l-2.31,5.47h-2.72Zm3.89,10.75-3-6.69-2.77,6.69Z" transform="translate(-103.11 -111.43)"/><path class="cls-2" d="M210.06,219.69V201.23h4.63a6.71,6.71,0,0,1,4.45,1.38,4.69,4.69,0,0,1,1.64,3.76,4.89,4.89,0,0,1-.8,2.79,4.78,4.78,0,0,1-2.32,1.75,8.15,8.15,0,0,1,1.73,1.59,31.22,31.22,0,0,1,2.38,3.5c.65,1.05,1.16,1.84,1.55,2.37l1,1.32h-3.15l-.8-1.21-.16-.23-.52-.73-.82-1.35-.88-1.44a15.13,15.13,0,0,0-1.5-1.81,5.54,5.54,0,0,0-1.23-1,4.16,4.16,0,0,0-1.85-.29h-.68v8Zm3.44-16.22h-.79v5.83h1a7.49,7.49,0,0,0,2.76-.34,2.66,2.66,0,0,0,1.16-1,3,3,0,0,0,.42-1.58,2.82,2.82,0,0,0-.47-1.58,2.52,2.52,0,0,0-1.3-1A9.54,9.54,0,0,0,213.5,203.47Z" transform="translate(-103.11 -111.43)"/><path class="cls-2" d="M247.93,201.23H258.4v2.35h-7.82v5.63h7.56v2.37h-7.56v5.73h8.07v2.36H247.93Zm7.68-5.33-3,4h-1.48l1.78-4Z" transform="translate(-103.11 -111.43)"/><path class="cls-2" d="M295.92,201.23h2.65v10.48a12.29,12.29,0,0,1-.31,3.21,6.86,6.86,0,0,1-.76,1.8,5.75,5.75,0,0,1-1.12,1.29,8.49,8.49,0,0,1-5.74,1.89,8.59,8.59,0,0,1-5.79-1.87,6.08,6.08,0,0,1-1.12-1.31A6.85,6.85,0,0,1,283,215a13,13,0,0,1-.3-3.28V201.23h2.66v10.48a7.73,7.73,0,0,0,.6,3.62,4.19,4.19,0,0,0,1.81,1.63,6.26,6.26,0,0,0,2.87.62,5.81,5.81,0,0,0,3.83-1.23,3.8,3.8,0,0,0,1.12-1.56,9.55,9.55,0,0,0,.35-3.08Z" transform="translate(-103.11 -111.43)"/><path class="cls-2" d="M324,201.23h2.47v18.46h-2.66V205.32l-5.67,7.14h-.49l-5.75-7.14v14.37h-2.64V201.23h2.5l6.14,7.58Z" transform="translate(-103.11 -111.43)"/><path class="cls-2" d="M358.26,219.69H352V201.23h4.84a8.46,8.46,0,0,1,3.57.61,4.44,4.44,0,0,1,2.63,4.18,4,4,0,0,1-2.82,3.9,5.72,5.72,0,0,1,3.22,1.67,4.33,4.33,0,0,1,1.2,3.07,4.54,4.54,0,0,1-.73,2.52,5.35,5.35,0,0,1-2.14,1.81A7.8,7.8,0,0,1,358.26,219.69Zm-1.33-16.11h-2.28v5.55h1.76a4.46,4.46,0,0,0,3-.81,2.68,2.68,0,0,0,.89-2.08C360.31,204.46,359.18,203.58,356.93,203.58Zm.19,7.9h-2.47v5.86h2.61a8.36,8.36,0,0,0,2.94-.34,2.87,2.87,0,0,0,1.71-2.58,2.63,2.63,0,0,0-.5-1.55,2.93,2.93,0,0,0-1.4-1A8.79,8.79,0,0,0,357.12,211.48Z" transform="translate(-103.11 -111.43)"/><path class="cls-2" d="M380.73,201.12h1.86l8.28,18.57h-2.71l-2.46-5.47h-7.88l-2.31,5.47h-2.72Zm3.88,10.75-3-6.69-2.76,6.69Z" transform="translate(-103.11 -111.43)"/><path class="cls-2" d="M400,219.69V201.23h4.62a6.71,6.71,0,0,1,4.45,1.38,4.67,4.67,0,0,1,1.65,3.76,4.61,4.61,0,0,1-3.12,4.54,8.39,8.39,0,0,1,1.73,1.59,32.67,32.67,0,0,1,2.38,3.5c.64,1.05,1.16,1.84,1.54,2.37l1,1.32H411.1l-.81-1.21-.16-.23-.51-.73-.82-1.35-.89-1.44a13.43,13.43,0,0,0-1.5-1.81,5.54,5.54,0,0,0-1.23-1,4.11,4.11,0,0,0-1.84-.29h-.69v8Zm3.43-16.22h-.79v5.83h1a7.49,7.49,0,0,0,2.76-.34,2.55,2.55,0,0,0,1.16-1,3,3,0,0,0,.42-1.58,2.81,2.81,0,0,0-.46-1.58,2.54,2.54,0,0,0-1.31-1A9.49,9.49,0,0,0,403.44,203.47Z" transform="translate(-103.11 -111.43)"/><path class="cls-2" d="M429.21,201.12h1.86l8.28,18.57h-2.71l-2.46-5.47H426.3l-2.3,5.47h-2.72Zm3.89,10.75-3-6.69-2.77,6.69Z" transform="translate(-103.11 -111.43)"/><path class="cls-2" d="M444.13,201.2h15.42v2.35h-6.43v16.14h-2.66V203.55h-6.33Z" transform="translate(-103.11 -111.43)"/><path class="cls-2" d="M476.4,201a9.89,9.89,0,0,1,7.12,2.71,9,9,0,0,1,2.85,6.8,8.87,8.87,0,0,1-2.87,6.76,10.24,10.24,0,0,1-7.25,2.67,9.63,9.63,0,0,1-6.95-2.67,8.92,8.92,0,0,1-2.79-6.71,9.13,9.13,0,0,1,2.81-6.85A9.73,9.73,0,0,1,476.4,201Zm.1,2.51a7.14,7.14,0,0,0-5.21,2,6.75,6.75,0,0,0-2,5.06,6.61,6.61,0,0,0,2.05,5,7.61,7.61,0,0,0,10.28,0,6.76,6.76,0,0,0,2.07-5,6.58,6.58,0,0,0-2.07-4.93A7,7,0,0,0,476.5,203.47Z" transform="translate(-103.11 -111.43)"/><path class="cls-2" d="M499.92,218.32a1.52,1.52,0,0,1-.46,1.12,1.58,1.58,0,0,1-1.15.46,1.68,1.68,0,0,1-1.19-.45,1.48,1.48,0,0,1-.49-1.13,1.63,1.63,0,0,1,.48-1.2,1.57,1.57,0,0,1,1.16-.48,1.61,1.61,0,0,1,1.19.48A1.65,1.65,0,0,1,499.92,218.32ZM498,213.93l-.21-.68a22.07,22.07,0,0,1-.64-3.6,37.19,37.19,0,0,1-.37-4.79c0-2.58.51-3.87,1.52-3.87s1.48,1.25,1.48,3.77a36.57,36.57,0,0,1-.59,6.41l-.36,2-.21.77c-.08.27-.2.41-.36.41S498.09,214.22,498,213.93Z" transform="translate(-103.11 -111.43)"/></svg>